<?xml version="1.0" encoding="UTF-8" standalone="no"?>
<!DOCTYPE svg PUBLIC "-//W3C//DTD SVG 1.1//EN" "http://www.w3.org/Graphics/SVG/1.1/DTD/svg11.dtd">
<svg xmlns="http://www.w3.org/2000/svg" version="1.1" viewBox="0.00 0.00 1026.00 1024.00">
<path fill="none" stroke-width="1.00" stroke="#ffffff" vector-effect="non-scaling-stroke" d="
  M 367.47 642.27
  Q 366.13 644.12 362.57 644.56
  Q 354.32 645.59 347.39 646.68
  C 327.58 649.79 308.17 658.92 294.17 673.25
  C 290.72 676.78 288.32 678.95 285.43 682.70
  Q 273.59 698.07 268.65 718.37
  Q 266.93 725.43 266.96 728.49
  Q 267.03 734.69 266.92 739.84
  Q 266.80 745.07 267.97 751.11
  C 273.17 778.03 290.70 799.03 314.34 812.14
  Q 331.72 821.78 351.02 826.44
  Q 356.68 827.81 372.54 829.91
  Q 373.61 830.05 380.52 830.11
  A 10.17 9.47 -38.3 0 1 382.12 830.24
  Q 390.38 831.53 394.76 830.84
  Q 399.42 830.11 402.08 830.06
  Q 405.35 830.01 409.42 829.53
  Q 431.56 826.95 455.21 817.94
  Q 485.12 806.54 507.26 785.36
  Q 507.55 785.08 509.79 783.17
  Q 512.32 780.99 516.10 776.86
  Q 543.26 747.14 554.56 709.04
  Q 557.54 698.99 559.44 687.69
  Q 561.48 675.51 561.13 668.35
  A 8.65 8.36 49.7 0 1 561.25 666.51
  Q 562.56 658.86 561.83 654.26
  Q 560.99 648.93 561.02 646.96
  C 561.09 641.82 559.94 635.68 559.41 631.77
  Q 554.24 594.15 537.10 560.25
  A 0.94 0.94 0.0 0 0 535.61 559.99
  C 533.97 561.54 532.22 563.53 530.73 564.62
  C 526.49 567.70 522.94 571.66 518.51 575.21
  Q 510.32 581.79 509.33 582.56
  Q 490.45 597.17 469.87 607.34
  Q 454.41 614.99 437.18 618.00
  Q 430.59 619.15 425.63 619.00
  C 420.30 618.84 415.32 619.33 410.17 618.56
  Q 397.39 616.66 386.91 610.82
  Q 369.71 601.24 364.79 582.28
  Q 363.72 578.12 363.93 573.70
  C 364.13 569.65 363.63 565.96 364.43 562.11
  Q 366.20 553.53 369.08 548.05
  C 371.27 543.89 374.16 538.46 377.21 534.43
  Q 386.53 522.11 395.22 514.45
  Q 418.54 493.91 447.03 477.80
  Q 455.83 472.83 457.20 471.98
  C 465.30 466.99 473.80 463.38 481.75 458.59
  A 0.65 0.64 69.2 0 0 482.05 457.91
  C 480.55 451.08 477.59 444.10 476.03 436.62
  C 474.84 430.91 473.94 423.82 473.20 417.51
  C 472.55 412.04 473.44 407.79 474.10 402.15
  Q 476.75 379.59 489.99 361.27
  C 491.92 358.60 494.28 356.29 496.35 353.53
  C 498.99 350.03 501.92 347.82 506.61 344.11
  Q 521.67 332.18 539.63 328.75
  Q 543.56 328.00 549.41 327.99
  Q 558.06 327.96 559.23 328.11
  C 570.16 329.53 580.98 334.69 586.30 344.58
  Q 589.22 350.01 590.49 356.36
  Q 591.54 361.62 590.25 367.57
  Q 588.57 375.38 587.20 378.45
  Q 580.17 394.22 569.37 405.88
  Q 564.70 410.93 564.42 411.28
  C 561.17 415.38 557.71 417.57 554.22 421.27
  Q 552.89 422.68 548.95 425.89
  Q 538.97 434.01 536.37 435.87
  Q 521.54 446.50 506.92 455.26
  A 1.21 1.20 -26.8 0 0 506.42 456.76
  Q 507.06 458.35 507.94 459.81
  Q 522.90 484.64 543.02 511.47
  Q 544.59 513.56 553.67 527.95
  A 0.48 0.48 0.0 0 0 554.40 528.06
  Q 558.77 524.16 562.31 519.32
  A 8.63 7.85 -6.2 0 1 563.30 518.20
  Q 568.97 512.88 572.47 508.47
  Q 574.55 505.85 576.74 503.74
  C 578.62 501.92 580.22 499.16 582.28 497.26
  C 585.42 494.36 588.03 490.71 591.47 486.80
  Q 606.21 470.02 613.92 460.93
  Q 616.08 458.39 618.50 455.98
  C 620.54 453.95 622.16 451.26 624.35 449.17
  Q 629.19 444.54 632.52 440.61
  C 639.15 432.75 643.41 429.14 653.72 418.81
  Q 657.74 414.78 660.85 412.29
  C 664.27 409.57 666.51 406.91 670.43 403.63
  C 686.85 389.88 703.82 377.50 724.50 372.23
  Q 730.16 370.79 735.06 370.94
  C 740.20 371.09 744.96 370.53 749.35 371.53
  C 759.72 373.89 765.95 377.50 771.30 386.55
  Q 774.30 391.63 774.20 397.27
  C 774.05 405.09 770.54 412.38 763.35 415.76
  Q 759.70 417.47 755.62 415.78
  Q 749.52 413.26 748.28 406.01
  A 1.19 1.17 59.5 0 1 748.51 405.08
  Q 750.09 403.06 752.48 401.43
  C 755.98 399.06 757.22 396.34 757.84 392.70
  A 2.98 2.89 42.4 0 0 757.76 391.35
  Q 754.67 381.05 743.72 378.53
  C 739.60 377.59 733.75 377.57 729.06 378.89
  Q 716.54 382.40 711.49 385.26
  Q 693.23 395.57 677.55 410.06
  Q 673.95 413.39 671.09 415.94
  Q 665.57 420.87 664.63 421.81
  C 656.51 429.98 647.87 437.87 640.52 446.66
  C 637.21 450.62 633.40 453.76 630.03 457.95
  Q 628.95 459.29 620.73 468.37
  Q 613.61 476.24 611.42 478.76
  Q 593.50 499.44 577.56 517.64
  C 574.23 521.44 570.66 524.44 567.58 528.26
  Q 563.98 532.73 559.66 536.79
  A 1.03 1.02 53.2 0 0 559.48 538.06
  Q 570.12 556.00 577.80 574.71
  Q 589.10 602.22 592.04 632.00
  C 592.25 634.20 591.97 635.61 592.36 638.25
  Q 593.50 645.94 592.84 650.27
  Q 592.10 655.13 592.06 657.92
  Q 592.02 661.42 591.54 665.58
  Q 589.16 686.17 581.97 706.96
  C 575.88 724.57 566.51 741.15 556.25 755.53
  Q 555.60 756.44 546.03 768.43
  Q 540.24 775.68 534.88 780.53
  Q 521.85 792.33 514.21 797.95
  Q 490.59 815.34 459.83 827.37
  C 447.77 832.10 432.70 835.61 420.61 837.83
  Q 419.53 838.03 409.71 839.33
  Q 404.63 840.00 398.75 839.98
  Q 376.58 839.93 375.74 839.93
  A 10.36 10.19 -38.3 0 1 373.53 839.69
  C 369.89 838.87 365.89 839.10 361.73 838.46
  Q 334.30 834.26 309.85 820.91
  Q 293.64 812.05 280.89 798.36
  Q 261.58 777.65 257.46 749.97
  C 256.87 745.97 257.43 741.21 256.27 737.69
  A 2.30 2.29 -44.8 0 1 256.28 736.23
  C 257.53 732.69 256.80 727.34 257.41 723.21
  Q 260.91 699.48 276.20 679.66
  Q 296.58 653.22 327.66 643.69
  Q 333.84 641.80 340.51 640.76
  Q 351.54 639.03 353.53 638.93
  Q 357.07 638.75 367.21 641.51
  A 0.49 0.48 -64.4 0 1 367.47 642.27
  Z
  M 502.16 447.23
  C 504.49 446.71 506.39 445.23 508.41 443.97
  C 520.88 436.21 532.14 428.37 542.12 418.47
  Q 551.04 409.62 551.98 408.49
  C 559.34 399.70 565.81 390.97 569.78 380.40
  Q 571.81 375.01 573.09 368.79
  Q 574.40 362.41 573.80 358.20
  C 572.42 348.49 566.80 338.40 556.66 336.30
  C 552.98 335.53 548.69 335.92 543.00 335.93
  Q 540.49 335.94 535.02 337.76
  Q 524.58 341.23 516.55 348.01
  Q 495.70 365.63 492.20 392.31
  Q 491.16 400.21 491.15 400.26
  C 490.28 404.36 491.65 410.49 491.97 414.10
  Q 492.86 424.17 496.72 435.35
  Q 498.88 441.57 501.33 446.82
  A 0.75 0.74 -18.4 0 0 502.16 447.23
  Z
  M 484.79 467.64
  Q 483.03 468.18 481.65 468.91
  Q 468.58 475.85 447.92 488.42
  Q 434.41 496.64 417.12 511.04
  Q 410.77 516.33 406.83 520.94
  Q 399.90 529.04 397.74 532.00
  C 391.47 540.60 386.52 549.69 384.07 560.61
  Q 382.39 568.13 383.15 573.99
  Q 384.22 582.20 386.63 586.97
  Q 394.63 602.85 412.58 607.16
  C 421.26 609.24 428.18 609.57 436.75 608.13
  Q 442.68 607.13 445.95 606.41
  Q 450.64 605.38 462.30 600.77
  Q 470.88 597.37 485.11 588.33
  Q 503.66 576.54 520.10 561.35
  C 523.99 557.76 528.13 554.93 531.43 551.17
  A 0.99 0.98 -32.2 0 0 531.64 550.26
  Q 531.07 548.14 530.14 546.62
  Q 513.49 519.34 499.01 493.73
  C 494.36 485.51 490.99 477.61 486.11 468.19
  A 1.12 1.12 0.0 0 0 484.79 467.64
  Z"
/>
</svg>
