<?xml version="1.0" encoding="UTF-8"?>
<svg viewBox="0 0 525 502" xmlns="http://www.w3.org/2000/svg">
  <style>
    .amp-path{
      fill: none;
      stroke: #ffffff;
      stroke-width: 9;
      stroke-linecap: round;
      stroke-linejoin: round;

      /* Draw animation */
      stroke-dasharray: 2600;
      stroke-dashoffset: 2600;
      animation: drawAmp 5.0s ease-out forwards;
    }

    @keyframes drawAmp {
      to { stroke-dashoffset: 0; }
    }
  </style>

  <path class="amp-path"
    d="M297.792 205.572L300.5 202.864L393.5 96.8641L429.5 62.8641L451.499 46.5543C456.126 43.1237 461.348 40.5784 466.901 39.0465L467.192 38.9664C471.046 37.903 475.027 37.3641 479.025 37.3641C483.319 37.3641 487.59 37.9856 491.706 39.2092L497.182 40.837C501.65 42.1653 505.693 44.6378 508.912 48.0095L510.736 49.921C513.19 52.4922 514.83 55.7318 515.447 59.2323C515.813 61.3041 515.813 63.424 515.447 65.4959L514.5 70.8641M297.792 205.572L278.5 224.864L271.482 231.18C262.844 238.955 253.544 245.961 243.689 252.121L242.5 252.864L224.5 261.864L207.5 268.864L199.814 270.999C193.005 272.89 185.89 273.413 178.879 272.536L178.364 272.472C172.5 271.739 166.811 269.983 161.554 267.284C154.612 263.719 148.591 258.595 143.962 252.313L142.33 250.098C138.821 245.335 136.414 239.851 135.285 234.044C134.111 228.006 134.349 221.778 135.98 215.847L137.379 210.759C138.457 206.839 139.916 203.033 141.734 199.396L142.576 197.712C146.5 189.865 151.663 182.701 157.867 176.497L168.5 165.864L194.5 145.864L233.5 120.864L248.28 113.063M297.792 205.572L258.5 132.864L248.28 113.063M297.792 205.572L302.986 215.184C308.979 226.275 313.812 237.954 317.408 250.036C322.115 265.849 324.664 282.225 324.987 298.72L325.5 324.864L322.974 348.106C321.336 363.176 317.239 377.876 310.846 391.621C304.002 406.336 294.629 419.735 283.154 431.21L281.969 432.395C273.685 440.679 264.449 447.951 254.454 454.059L246.178 459.116C237.738 464.274 228.926 468.799 219.816 472.653L207.5 477.864L189.671 482.879C180.243 485.53 170.594 487.318 160.842 488.221C152.626 488.982 144.364 489.112 136.128 488.61L125.208 487.944C113.439 487.226 101.785 485.21 90.4583 481.931L82.3682 479.589C73.8289 477.117 65.6647 473.498 58.0991 468.829C50.0748 463.878 42.8052 457.798 36.5138 450.775L33.389 447.287C27.4878 440.699 22.4636 433.376 18.4415 425.5L17.0046 422.686C14.0136 416.828 11.778 410.615 10.3513 404.195L10.2379 403.685C9.08276 398.487 8.5 393.178 8.5 387.853C8.5 376.356 11.216 365.023 16.4267 354.775L17.5616 352.543C21.4959 344.806 26.6266 337.737 32.7645 331.6C37.24 327.124 42.2156 323.179 47.5932 319.841L56.154 314.527C64.345 309.443 73.2021 305.521 82.4718 302.872C91.7785 300.213 101.41 298.864 111.09 298.864H114.5M248.28 113.063L255.395 109.309C264.781 104.355 273.729 98.6109 282.142 92.1396L287.373 88.1158C292.78 83.9564 297.802 79.3194 302.379 74.2607L308.545 67.4454C312.49 63.0852 315.723 58.13 318.124 52.7625L319.739 49.154C321.889 44.3482 323 39.1427 323 33.8779V29.4712C323 24.8403 321.608 20.3164 319.004 16.487C316.086 12.1971 311.81 9.0145 306.863 7.45228L302.74 6.15038C297.967 4.64317 292.93 4.16064 287.958 4.73435L282.168 5.40241C273.842 6.3631 265.863 9.28851 258.89 13.9376C252.057 18.4926 246.379 24.576 242.305 31.7058L242.165 31.9507C238.429 38.4876 236.1 45.7323 235.325 53.2212L234.942 56.9294C233.989 66.1323 234.826 75.4325 237.406 84.3176L239.507 91.5562C241.498 98.412 244.149 105.058 247.423 111.402L248.28 113.063Z"
  />
</svg>
