<svg viewBox="0 0 525 502" xmlns="http://www.w3.org/2000/svg">
  <style>
    /* Draw animation INSIDE the SVG (works with <img>) */
    .amp-path{
      fill: none;
      stroke: #ffffff;
      stroke-width: 8;
      stroke-linecap: round;
      stroke-linejoin: round;
      stroke-dasharray: 2400;
      stroke-dashoffset: 2400;
      animation: drawAmp 3.6s ease-out forwards;
    }
    @keyframes drawAmp{
      to { stroke-dashoffset: 0; }
    }
  </style>

  <path class="amp-path"
    d="M297.792 205.572L300.5 202.864L393.5 96.8641L429.5 62.8641L451.499 46.5543C456.126 43.1237 461.348 40.5784 466.901 39.0465L467.192 38.9664C471.046 37.903 475.027 37.3641 479.025 37.3641C483.319 37.3641 487.59 37.9856 491.706 39.2092L497.182 40.837C501.65 42.1653 505.693 44.6378 508.912 48.0095L510.736 49.921C513.19 52.4922 514.83 55.7318 515.447 59.2323C515.813 61.3041 515.813 63.424 515.447 65.4959L514.5 70.8641M297.792 205.572L278.5 224.864L271.482 231.18C262.844 238.955 253.544 245.961 243.689 252.121L242.5 252.864L224.5 261.864L207.5 268.864L199.814 270.999C193.005 272.89 185.89 273.413 178.879 272.536L178.364 272.472C172.5 271.739 166.811 269.983 161.554 267.284C154.612 263.719 148.591 258.595 143.962 252.313L142.33 250.098C138.821 245.335 136.414 239.851 135.285 234.044C134.111 228.006 134.349 221.778 135.98 215.847L137.379 210.759C138.457 206.839 139.916 203.033 141.734 199.396L142.576 197.712C146.5 189.865 151.663 182.701 157.867 176.497L168.5 165.864L194.5 145.864L233.5 120.864L248.28 113.063M297.792 205.572L258.5 132.864L248.28 113.063"
  />
</svg>
