<?xml version="1.0" encoding="UTF-8"?>
<svg
  viewBox="0 0 525 502"
  xmlns="http://www.w3.org/2000/svg"
>

  <style>
    .amp-path {
      fill: none;
      stroke: #ffffff;
      stroke-width: 9;
      stroke-linecap: round;
      stroke-linejoin: round;

      /* DRAW ANIMATION */
      stroke-dasharray: 2600;
      stroke-dashoffset: 2600;
      animation: drawAmp 3.8s ease-out forwards;
    }

    @keyframes drawAmp {
      to {
        stroke-dashoffset: 0;
      }
    }
  </style>

  <path
    class="amp-path"
    d="
M 367.47 642.27
Q 366.13 644.12 362.57 644.56
Q 354.32 645.59 347.39 646.68
C 327.58 649.79 308.17 658.92 294.17 673.25
C 290.72 676.78 288.32 678.95 285.43 682.70
Q 273.59 698.07 268.65 718.37
Q 266.93 725.43 266.96 728.49
Q 267.03 734.69 266.92 739.84
Q 266.80 745.07 267.97 751.11
C 273.17 778.03 290.70 799.03 314.34 812.14
Q 331.72 821.78 351.02 826.44
Q 356.68 827.81 372.54 829.91
Q 373.61 830.05 380.52 830.11
Q 390.38 831.53 394.76 830.84
Q 399.42 830.11 402.08 830.06
Q 405.35 830.01 409.42 829.53
Q 431.56 826.95 455.21 817.94
Q 485.12 806.54 507.26 785.36
Q 512.32 780.99 516.10 776.86
Q 543.26 747.14 554.56 709.04
Q 561.48 675.51 561.13 668.35
Q 562.56 658.86 561.83 654.26
Q 560.99 648.93 561.02 646.96
Q 554.24 594.15 537.10 560.25
Q 533.97 561.54 530.73 564.62
Q 518.51 575.21 509.33 582.56
Q 469.87 607.34 437.18 618.00
Q 397.39 616.66 386.91 610.82
Q 369.71 601.24 364.79 582.28
Q 363.72 578.12 363.93 573.70
Q 366.20 553.53 369.08 548.05
Q 395.22 514.45 447.03 477.80
Q 481.75 458.59 482.05 457.91
Q 474.84 430.91 473.20 417.51
Q 489.99 361.27 506.61 344.11
Q 539.63 328.75 559.23 328.11
Q 580.98 334.69 586.30 344.58
Q 590.49 356.36 590.25 367.57
Q 580.17 394.22 569.37 405.88
Q 536.37 435.87 506.92 455.26
Q 543.02 511.47 553.67 527.95
Q 572.47 508.47 582.28 497.26
Q 613.92 460.93 632.52 440.61
Q 686.85 389.88 724.50 372.23
Q 765.95 377.50 771.30 386.55
Q 774.05 405.09 763.35 415.76
Q 748.28 406.01 752.48 401.43
Q 754.67 381.05 743.72 378.53
Q 711.49 385.26 677.55 410.06
Q 630.03 457.95 620.73 468.37
Q 577.56 517.64 559.66 536.79
Q 592.04 632.00 581.97 706.96
Q 556.25 755.53 514.21 797.95
Q 459.83 827.37 375.74 839.93
Q 309.85 820.91 280.89 798.36
Q 256.27 737.69 276.20 679.66
Q 327.66 643.69 367.47 642.27
"
  />

</svg>
