<?xml version="1.0" encoding="UTF-8"?>
<svg xmlns="http://www.w3.org/2000/svg" viewBox="0 0 600 600">
  <path
    d="M360 120
       C305 95 235 120 235 190
       C235 255 310 275 350 315
       C385 350 375 410 320 430
       C260 455 195 420 210 350
       C220 300 280 275 320 255
       C375 225 430 205 430 165
       C430 120 395 105 360 120
       M205 350
       C185 450 295 520 390 470
       C470 430 485 350 430 300
       C395 265 340 250 300 225
       C240 190 245 140 290 120
       C335 95 420 100 430 165"
    fill="none"
    stroke="#ffffff"
    stroke-width="14"
    stroke-linecap="round"
    stroke-linejoin="round" />
</svg>
