<?xml version="1.0" encoding="UTF-8"?>
<svg version="1.1" viewBox="0 0 1024 1024" width="1024" height="1024" xmlns="http://www.w3.org/2000/svg">
<path transform="translate(576,125)" d="m0 0h22l14 3 12 5 9 7 8 9 4 8 2 9v16l-4 15-8 17-10 14-9 11-7 8-5 5-13 12-14 12-20 15-15 10-21 13-2 1 2 5 11 18 10 15 29 43 11 17 10 16 18-18 7-8 7-7 7-8 9-10 9-11 12-13 9-11 11-12 9-11 12-13 7-8 11-12 14-15 20-20 8-7 13-11 16-12 15-10 18-10 16-7 18-5 8-1h21l15 4 9 5 8 7 7 11 3 12-1 11-5 10-8 7-9 2-6-2-7-6-2-8 3-7 7-6 2-10-2-7-4-5-6-4-10-3h-17l-16 4-15 6-17 9-20 14-16 13-20 18-30 30-7 8-9 10-9 11-12 13-9 11-12 13-9 11-10 11-9 11-14 15-7 8-24 24 2 6 10 19 12 25 10 26 7 23 5 22 3 19 1 10v39l-3 24-6 26-8 24-8 18-12 23-16 24-8 10-12 14-15 16-8 7-12 11-17 13-15 10-21 12-15 8-25 10-24 8-29 7-30 4-14 1h-24l-25-2-23-4-24-7-16-6-16-8-11-6-13-9-13-11-13-13-10-13-8-13-9-19-6-21-2-15v-23l2-14 5-18 8-18 8-13 10-13 10-11 11-9 12-9 16-9 12-6 18-6 19-4 11-1h14l9 2 2 1-1 4-2 1-27 2-16 3-18 6-17 8-16 10-11 9-11 10-11 14-8 13-8 17-5 19-2 13v20l3 21 6 18 9 17 10 14 11 13 11 10 15 11 18 10 21 9 20 6 19 4 29 3h30l21-2 31-6 23-7 26-11 22-12 15-10 16-12 13-12 10-9 10-11 11-14 10-14 13-23 10-23 7-21 5-20 4-27 1-15v-28l-2-23-5-28-8-31-8-23-12-29v-2l-8 7-14 13-11 9-15 12-14 10-19 12-27 14-21 8-25 6-6 1h-28l-20-4-13-5-10-5-10-8-8-8-8-13-4-12-1-7v-22l4-15 10-21 10-14 11-13 18-18 14-11 13-10 24-16 20-12 25-14 28-15 2-1-1-6-7-23-4-21-1-11v-19l3-19 5-16 5-12 8-15 10-13 5-6h2v-2l8-7 12-9 14-8 17-6zm-5 11-15 4-16 8-12 9-12 13-9 15-5 12-3 9-3 18v26l4 22 9 27 3 6 5-2 20-12 18-13 11-9 10-9 8-7 10-11 12-17 8-14 7-19 2-12v-11l-3-12-6-9-8-7-9-4-5-1zm-82 194-13 8-25 14-19 12-21 14-16 12-14 12-13 12-10 11-12 17-8 16-4 10-3 13-1 12 2 16 5 13 6 9 6 7 14 9 16 5 7 1h22l16-3 21-7 25-12 17-10 15-10 17-13 13-11 20-18 8-8-1-5-13-23-16-28-10-17-13-24-8-16-8-17z" fill="#FEFEFE"/>
</svg>
